<?xml version="1.0" encoding="UTF-8"?>
<svg id="Layer_1" xmlns="http://www.w3.org/2000/svg" version="1.1" viewBox="0 0 1048 213.14">
  <!-- Generator: Adobe Illustrator 29.2.1, SVG Export Plug-In . SVG Version: 2.1.0 Build 116)  -->
  <defs>
    <style>
      .st0, .st1 {
      fill: #181928;
      }

      .st1 {
      stroke: #181928;
      stroke-miterlimit: 10;
      stroke-width: .46px;
      }

      .st2 {
      fill: #e26026;
      }
    </style>
  </defs>
  <path class="st0" d="M57.65,133.24c-.79.65-1.35.75-2.73.75-2.15,0-4.04-1.89-4.04-4.04v-40.5h17.27v-37.06h-17.27V10.29H13.82v42.1H0v37.06h13.82v40.5l.02,1.7h.03c.9,21.88,18.97,39.39,41.06,39.39,7.33,0,13.55-1.5,19.59-4.73l1.46-.78-16.68-33.65-1.65,1.35Z"/>
  <path class="st0" d="M149.56,64.28c-8.77-7.69-19.46-11.89-30.51-11.89-27.98,0-50.74,26.54-50.74,59.16s22.76,59.16,50.74,59.16c11.05,0,21.75-4.19,30.51-11.89v11.89h37.06V52.39h-37.06v11.89ZM127.46,133.65c-12.19,0-22.1-9.91-22.1-22.1s9.91-22.1,22.1-22.1,22.1,9.91,22.1,22.1-9.92,22.1-22.1,22.1Z"/>
  <path class="st0" d="M262.4,52.39c-11.05,0-21.75,4.19-30.51,11.89v-11.89h-37.06v160.75h37.06v-54.32c8.77,7.69,19.46,11.89,30.51,11.89,27.98,0,50.74-26.54,50.74-59.16s-22.76-59.16-50.74-59.16ZM253.98,89.45c12.19,0,22.1,9.91,22.1,22.1s-9.92,22.1-22.1,22.1-22.1-9.91-22.1-22.1,9.91-22.1,22.1-22.1Z"/>
  <path class="st0" d="M878.9,93.02c-8.2-25.25-31.47-42.22-57.91-42.22-33.57,0-60.88,27.3-60.88,60.87s27.3,60.87,60.86,60.87c21.57,0,41.75-11.67,52.67-30.45l.21-.37-31.32-18.09-.37-.21-.21.37c-6.47,11.14-20.69,15.27-32.02,9.44l69.07-39.88-.11-.33ZM796.76,110.47c.4-8.25,4.9-15.6,12.15-19.78,3.79-2.18,7.95-3.27,12.1-3.27,3.77,0,7.52.9,10.99,2.69l-35.25,20.35Z"/>
  <path class="st0" d="M964.65,64.28c-8.77-7.69-19.46-11.89-30.51-11.89-27.98,0-50.74,26.54-50.74,59.16s22.76,59.16,50.74,59.16c11.05,0,21.75-4.19,30.51-11.89v11.89h37.06V52.39h-37.06v11.89ZM942.55,133.65c-12.19,0-22.1-9.91-22.1-22.1s9.91-22.1,22.1-22.1,22.1,9.91,22.1,22.1-9.92,22.1-22.1,22.1Z"/>
  <rect class="st0" x="1010.94" y="9.96" width="37.06" height="160.73"/>
  <path class="st1" d="M698.62,52.52c-17.86,0-33.03,6.82-42.04,18.8-9.01-11.98-24.17-18.8-42.04-18.8-33.67,0-55.43,22.38-55.43,57.03v60.43h36.21v-60.43c0-11.48,9.34-20.82,20.82-20.82s20.82,9.34,20.82,20.82v60.43h39.24v-60.43c0-11.48,9.34-20.82,20.82-20.82s20.82,9.34,20.82,20.82v60.43h36.21v-60.43c0-34.64-21.76-57.03-55.43-57.03Z"/>
  <path class="st2" d="M436.72,48.79l-.77.02-.88-.02c-34.74,0-57.19,23.1-57.19,58.84v62.35h37.36v-62.35c0-11.64,9.08-21.05,20.55-21.44,11.64.39,20.76,9.81,20.76,21.44v62.35h37.36s0-62.35,0-62.35c0-35.74-22.45-58.84-57.19-58.84Z"/>
  <path class="st2" d="M544.66,169.97h-37.52v-54.71c0-7.11,5.76-12.87,12.87-12.87h11.79c7.11,0,12.87,5.76,12.87,12.87v54.71Z"/>
  <path class="st2" d="M364.64,169.97h-37.52v-24.66c0-7.11,5.76-12.87,12.87-12.87h11.79c7.11,0,12.87,5.76,12.87,12.87v24.66Z"/>
  <g>
    <path class="st2" d="M437.46,0h-3.15c-23.35,0-43.9,5.38-60.6,15.14-7.52,4.39-8.81,14.73-2.66,20.89l6.55,6.55c4.36,4.36,11.07,5.06,16.37,1.91,10.99-6.52,24.7-9.81,40.97-9.81h1.86c23.13,0,41.09,6.55,53.39,19.48,7.36,7.74,11.71,16.79,14.28,25.03,1.74,5.57,6.86,9.36,12.69,9.36h10.9c8.78,0,15.1-8.35,12.83-16.84C529.21,27.84,490.57,0,437.46,0Z"/>
    <path class="st2" d="M363.63,103.78c-.01-.23-.62-17.72,7.99-34.97,2.58-5.18,1.68-11.41-2.41-15.5l-7.8-7.8c-6.1-6.1-16.43-4.94-20.79,2.52-8.73,14.93-13.5,32.81-13.5,52.89v4.7h0c0,7.35,5.95,13.3,13.3,13.3h9.99c7.35,0,13.3-5.95,13.3-13.3v-.05h0l-.08-1.79Z"/>
  </g>
</svg>
