<svg width="100%" height="100%" viewBox="0 0 20 14" fill="none" xmlns="http://www.w3.org/2000/svg">
  <path d="M6.65895 6.56893L12.4381 12.3481C12.4648 11.8353 12.4878 10.7036 12.2933 9.34756C11.9429 6.90366 11.0416 4.89573 9.68684 3.54104C8.33212 2.18631 6.32422 1.28499 3.88032 0.934556C2.06188 0.673775 0.645904 0.804049 0.586529 0.809791C0.445495 0.82327 0.313556 0.88544 0.213375 0.985621C0.113194 1.0858 0.0510244 1.21774 0.0375448 1.35878C0.0318417 1.41815 -0.0984318 2.83409 0.16231 4.65256C0.51274 7.09647 1.41403 9.1044 2.76879 10.4591C4.12352 11.8138 6.13141 12.7151 8.57532 13.0656C9.4754 13.1946 10.2766 13.2279 10.8637 13.2279C11.1611 13.2279 11.4034 13.2193 11.5758 13.2103L5.79665 7.43124C5.55852 7.19315 5.55852 6.80706 5.79665 6.56889C6.03473 6.33084 6.42083 6.33084 6.65895 6.56893ZM19.9729 5.03932C19.9594 4.89829 19.8972 4.76635 19.7971 4.66617C19.6969 4.56599 19.5649 4.50382 19.4239 4.49034C19.2609 4.47479 15.4064 4.13471 13.1618 6.37932C13.0752 6.4661 12.9916 6.55594 12.9113 6.64866C13.1741 7.43444 13.3721 8.27905 13.5005 9.17448C13.5398 9.44962 13.5725 9.72568 13.5984 10.0024L15.1917 8.40916C15.4298 8.17108 15.8159 8.17108 16.054 8.40916C16.2922 8.64725 16.2922 9.03334 16.054 9.27151L13.6758 11.6498C13.6752 12.2713 13.6398 12.6765 13.6321 12.7574C13.6186 12.898 13.5888 13.0366 13.5433 13.1703C14.8978 13.045 16.7676 12.6178 18.0839 11.3014C20.3285 9.05686 19.9885 5.20237 19.9729 5.03932Z" fill="currentColor"/>
</svg>
